<svg id="Layer_1" data-name="Layer 1" xmlns="http://www.w3.org/2000/svg" viewBox="0 0 368.37 391.04"><defs><style>.cls-1{fill:#fff;}</style></defs><title>logo_all_white</title><path class="cls-1" d="M132.91,316.68l-3.4-1.66-2.38,4.87,26.2,12.78,1.58-3.23,6.18,3-7,14.41-6.18-3,1.57-3.23-26.2-12.78-2.38,4.88,3.4,1.66-3,6.24-9.58-4.67,14.71-30.18,9.59,4.68Z" transform="translate(-111.66 -209.38)"/><path class="cls-1" d="M153.08,287.09l-3-2.27-8.22,10.95,8.33,6.25,10.45-13.93,5.55,4.17-10.45,13.92,9.43,7.09,8.22-11-3-2.27,4.12-5.5,8.53,6.4-19.8,26.4-5.5-4.13,2.16-2.88-23.32-17.49-2.16,2.87-5.5-4.12,19.81-26.4,8.52,6.4Z" transform="translate(-111.66 -209.38)"/><path class="cls-1" d="M170.71,263.48l8.92,11,1.61-19.53-2.49,2-4.34-5.34,13.67-11.1,4.33,5.34-3,2.43-1.61,16,20.88,5.88,2.6-2.11,4.33,5.34-14,11.38-4.34-5.34,2.69-2.18-13.49-4-.92,8.47,3.54,4.36,2.79-2.27,4.34,5.34-12.45,10.11L179.45,294l2.79-2.27-18.38-22.63-2.8,2.27L156.73,266l12.44-10.11,4.33,5.34Z" transform="translate(-111.66 -209.38)"/><path class="cls-1" d="M238,224.43l14.08,33.18-8.37,3.55-26.33-18.1-.12.05,7.84,18.48,3.55-1.51,2.68,6.34L217,272.48l-2.69-6.33,3.31-1.41L206.27,237.9,203,239.3,200.27,233l11.22-4.76,27.26,19,.12-.05-8.31-19.58-3.55,1.5-2.68-6.33,14.29-6.07,2.69,6.34Z" transform="translate(-111.66 -209.38)"/><path class="cls-1" d="M248.15,222.16l-1.44-6.73,15.68-3.35,1.43,6.73-3.51.75,6.09,28.51,3.52-.75,1.43,6.73-15.67,3.35-1.44-6.73,3.52-.75-6.09-28.51Z" transform="translate(-111.66 -209.38)"/><path class="cls-1" d="M285.7,216.41l.08,14.14,13.49-14.21-3.22,0,0-6.89,17.61-.09,0,6.88-3.85,0-11.29,11.49,12.59,17.66,3.35,0,0,6.88-18.06.1,0-6.88,3.47,0-8-11.56-6,6,0,5.61,3.6,0,0,6.88-16,.09,0-6.88,3.6,0-.16-29.16-3.6,0,0-6.88,16-.09,0,6.88Z" transform="translate(-111.66 -209.38)"/><path class="cls-1" d="M331.92,237.67l-3.13,11.38,3.47,1-1.82,6.63L315,252.39l1.82-6.63,3.48,1L328,218.6l-3.47-1,1.82-6.63,15.46,4.25L340,221.89l-3.47-.95-2.76,10,15.58,4.28,2.76-10-3.47-1,1.82-6.63,15.46,4.24-1.82,6.64-3.47-.95-7.72,28.11,3.47,1-1.82,6.63L339.08,259l1.82-6.63,3.47,1L347.5,242Z" transform="translate(-111.66 -209.38)"/><path class="cls-1" d="M401.66,248.76,391.47,267c-5.48,9.81-13.6,10.48-22.47,5.53s-12.54-12.22-7.06-22l10.19-18.24L369,230.5l3.35-6,14,7.82-3.36,6-3.14-1.75L369.65,254.8c-2.22,4-3.07,8.48,2.77,11.74,5.67,3.17,9.12.11,11.33-3.86L394,244.45l-3.15-1.76,3.36-6,14,7.82-3.35,6Z" transform="translate(-111.66 -209.38)"/><path class="cls-1" d="M394.47,278.85a48.7,48.7,0,0,0,6.28,7.09c3.61,3.16,6.68,3,8.51.92,2.62-3-.41-7-3.25-11.33-4.19-6.52-5.89-13.38-1.11-18.84,5.74-6.55,13.31-4.37,19.72,1.25a49.69,49.69,0,0,1,9.86,11.82l-7,8-5.18-4.54,3.12-3.56a41.53,41.53,0,0,0-5.68-6.15c-3.23-2.83-5.95-2.78-7.66-.84-2.28,2.62,0,6.71,3.2,11.11,4.43,6.24,6.52,12.85,1.62,18.45-6.07,6.93-14.14,5.32-21-.71A56.13,56.13,0,0,1,385.22,279l7-8,5.17,4.53Z" transform="translate(-111.66 -209.38)"/><path class="cls-1" d="M450.25,303.31l3-2.28L445,290.09l-8.3,6.28,10.5,13.91-5.54,4.18-10.5-13.9-9.41,7.11L430,318.6l3-2.28,4.15,5.49-8.51,6.43-19.89-26.35,5.48-4.15,2.17,2.87L439.69,283l-2.17-2.88L443,276l19.89,26.35-8.5,6.43Z" transform="translate(-111.66 -209.38)"/><path class="cls-1" d="M467.36,333.47l3.37-1.74-2.5-4.82-25.89,13.4L444,343.5l-6.1,3.16-7.39-14.23,6.11-3.16,1.66,3.19,25.89-13.4-2.5-4.82L458.3,316l-3.19-6.16,9.47-4.9L480,334.73l-9.47,4.91Z" transform="translate(-111.66 -209.38)"/><path class="cls-1" d="M309.3,379.84l-1.16-.62c-9.15-3.69-15.34-5.22-23-5.88-7-.62-13.58-.07-18.95,3.29-7.49,4.7-10.45,14.38-9.51,23.6s5.83,17.68,13.52,20.55a33.3,33.3,0,0,0,11.3,1.69,60.53,60.53,0,0,0,21.1-3.84c8.56-3.5,15.14-11.46,18.53-22.4a57.56,57.56,0,0,0,1.86-7.82l.14-.88-.76-.45C318.16,384.53,313.66,382.14,309.3,379.84Z" transform="translate(-111.66 -209.38)"/><path class="cls-1" d="M304.5,281.13H287.18C201.57,287.3,178.73,350.2,178.73,386.4c0,34.17,14.59,53.91,27.47,71.32,8.78,11.86,16.35,22.1,17.38,34.86,3.36,41.67,11.42,48.83,27.81,58.9.23,9.07,0,25.67,0,27.63a5.38,5.38,0,0,0,1.86,4.13l18.45,15.87a5.38,5.38,0,0,0,3.51,1.3h41.23a5.36,5.36,0,0,0,3.5-1.3l18.45-15.87a5.38,5.38,0,0,0,1.87-4.18c0-1.91-.22-18.51,0-27.58,16.38-10.06,24.44-17.23,27.8-58.9,1-12.75,8.61-23,17.38-34.87C398.36,440.3,413,420.57,413,386.4,413,350.2,390.11,287.3,304.5,281.13Zm-74.77,99.24a19.78,19.78,0,0,1-10.68-4.46,14.05,14.05,0,0,0-1.25-27.78c-.47,0-.94-.07-1.41-.07a19.83,19.83,0,1,1,13.34,32.31Zm110.55,92.08c-8,8.14-19.84,12.44-34.21,12.44-15.41,0-33.46-5-48.28-13.36-16-9-25.08-25.76-24.27-44.73.09-2.25,2.22-3.47,4.18-3.47a3.09,3.09,0,0,1,2.55,1.09,3.51,3.51,0,0,1,.25,3.14c-4.38,14.75,2.91,27.85,19.64,38.38,17.78,11.19,41,11.93,41,11.93,17.62,0,29.2-4.12,39.43-16.35,13.37-16,15.34-31.43,6.39-50.07-3.55-7.39-8.95-13.56-17-19.41l-1.6-1.16-.45,1.92a60.09,60.09,0,0,1-5.3,13.77c-7.76,14.86-21.17,22.71-38.76,22.71-2,0-4.13-.1-6.23-.31A26.93,26.93,0,0,1,259,419c-5.92-7.24-8.68-17.45-7.58-28,.94-8.9,4.81-15.73,10.91-19.22,4.79-2.75,10.53-4.08,17.54-4.08,1.5,0,3.12.06,4.8.19,11.77.88,25.14,4.89,36.69,11l2.25,1.19-.34-2.53c-1.76-13.12-11.37-22.22-29.39-27.81-2.54-.79-4-2.29-3.82-3.24.2-1.32,3.26-1.7,7.42-.69,3.12.76,10.94,3.85,18.21,10.09,8.62,7.4,13.25,16.71,13.4,26.93v.68l.56.38c1.3.9,2.52,1.8,3.64,2.68,14.81,11.7,23.88,27.49,24.86,43.32C359.1,444.92,352.91,459.63,340.28,472.45Zm40.48-109.82a19.84,19.84,0,0,1-32.39,13.28,14.05,14.05,0,0,0-1.26-27.78c-.47,0-.94-.07-1.4-.07a19.83,19.83,0,0,1,35.05,14.57Z" transform="translate(-111.66 -209.38)"/></svg>